<?xml version="1.0" encoding="UTF-8" standalone="no"?>
<svg
   width="31"
   height="31"
   viewBox="0 0 31 31.000001"
   fill="none"
   version="1.1"
   id="svg1"
   sodipodi:docname="ghost_icon.svg"
   inkscape:version="1.3 (0e150ed, 2023-07-21)"
   xmlns:inkscape="http://www.inkscape.org/namespaces/inkscape"
   xmlns:sodipodi="http://sodipodi.sourceforge.net/DTD/sodipodi-0.dtd"
   xmlns="http://www.w3.org/2000/svg"
   xmlns:svg="http://www.w3.org/2000/svg">
  <defs
     id="defs1" />
  <sodipodi:namedview
     id="namedview1"
     pagecolor="#ffffff"
     bordercolor="#999999"
     borderopacity="1"
     inkscape:showpageshadow="2"
     inkscape:pageopacity="0"
     inkscape:pagecheckerboard="0"
     inkscape:deskcolor="#d1d1d1"
     inkscape:zoom="2.0716019"
     inkscape:cx="34.755712"
     inkscape:cy="-26.308143"
     inkscape:window-width="1920"
     inkscape:window-height="1043"
     inkscape:window-x="1920"
     inkscape:window-y="0"
     inkscape:window-maximized="1"
     inkscape:current-layer="svg1" />
  <path
     d="m 15.500012,7.1666522 c 4.14218,0 7.49998,3.3578658 7.49998,7.4999958 v 6.25 c 0,1.6108 -1.3058,2.9167 -2.9167,2.9167 -0.9999,0 -1.8822,-0.5032 -2.4077,-1.27 -0.4276,0.7581 -1.24183,1.27 -2.17558,1.27 -0.93375,0 -1.748,-0.5119 -2.17727,-1.2705 -0.52383,0.7673 -1.40619,1.2705 -2.40607,1.2705 -1.5571304,0 -2.8292704,-1.2203 -2.9123474,-2.7567 l -0.00432,-0.16 v -6.25 c 0,-4.14213 3.3578644,-7.4999958 7.5000044,-7.4999958 z m 0,1.666666 c -3.15455,0 -5.7242504,2.5039798 -5.8299504,5.6327498 l -0.00339,0.20058 -6.1e-4,6.2051 0.0025,0.1149 c 0.03565,0.6593 0.5835404,1.18 1.2481104,1.18 0.37649,0 0.7221,-0.1661 0.95587,-0.446 l 0.07367,-0.0975 c 0.69574,-1.0192 2.21921,-0.9552 2.82705,0.1188 0.14783,0.2612 0.42216,0.4247 0.72675,0.4247 0.30425,0 0.57775,-0.163 0.72391,-0.4222 0.58375,-1.0348 2.01757,-1.1347 2.74577,-0.2319 l 0.0808,0.1087 c 0.2329,0.3399 0.6142,0.5454 1.0328,0.5454 0.6498,0 1.1837,-0.4957 1.2443,-1.1296 l 0.0057,-0.1204 v -6.25 c 0,-3.22165 -2.6116,-5.8333298 -5.83328,-5.8333298 z m 0,6.6666698 c 0.9205,0 1.66668,0.93275 1.66668,2.08336 0,1.1506 -0.74618,2.0833 -1.66668,2.0833 -0.9205,0 -1.66667,-0.9327 -1.66667,-2.0833 0,-1.15061 0.74617,-2.08336 1.66667,-2.08336 z m -2.08334,-3.33334 c 0.69034,0 1.25,0.55965 1.25,1.25 0,0.69034 -0.55966,1.25 -1.25,1.25 -0.69036,0 -1.25,-0.55966 -1.25,-1.25 0,-0.69035 0.55964,-1.25 1.25,-1.25 z m 4.16662,0 c 0.6904,0 1.25,0.55965 1.25,1.25 0,0.69034 -0.5596,1.25 -1.25,1.25 -0.69028,0 -1.24995,-0.55966 -1.24995,-1.25 0,-0.69035 0.55967,-1.25 1.24995,-1.25 z"
     fill="#ebe0ff"
     id="path1" />
</svg>
