<?xml version="1.0" encoding="UTF-8" standalone="no"?>
<svg
   width="83.999977"
   height="21"
   viewBox="0 0 83.999977 21"
   fill="none"
   version="1.1"
   id="svg8"
   sodipodi:docname="ghost_on_split.svg"
   inkscape:version="1.3 (0e150ed, 2023-07-21)"
   xmlns:inkscape="http://www.inkscape.org/namespaces/inkscape"
   xmlns:sodipodi="http://sodipodi.sourceforge.net/DTD/sodipodi-0.dtd"
   xmlns="http://www.w3.org/2000/svg"
   xmlns:svg="http://www.w3.org/2000/svg">
  <sodipodi:namedview
     id="namedview8"
     pagecolor="#ffffff"
     bordercolor="#999999"
     borderopacity="1"
     inkscape:showpageshadow="2"
     inkscape:pageopacity="0"
     inkscape:pagecheckerboard="0"
     inkscape:deskcolor="#d1d1d1"
     inkscape:zoom="8"
     inkscape:cx="45.5625"
     inkscape:cy="5.4375"
     inkscape:window-width="1920"
     inkscape:window-height="1043"
     inkscape:window-x="1920"
     inkscape:window-y="0"
     inkscape:window-maximized="1"
     inkscape:current-layer="svg8" />
  <path
     id="path10"
     style="fill:#8d19d7"
     d="M 1 0 C 0.44771055 0 0 0.44772055 0 1 L 0 20 C 0 20.552299 0.44771055 21 1 21 L 38.765625 21 L 42 21 L 83 21 C 83.552298 21 84 20.552298 84 20 L 84 1 C 84 0.44772115 83.552298 0 83 0 L 42 0 L 38.765625 0 L 1 0 z M 42 1 L 83 1 L 83 20 L 42 20 L 42 1 z " />
  <path
     d="m 20.99998,2.1665 c 4.1422,0 7.5,3.35787 7.5,7.5 v 6.25 c 0,1.6108 -1.3058,2.9167 -2.9167,2.9167 -0.9999,0 -1.8822,-0.5032 -2.4077,-1.27 -0.4276,0.7581 -1.2418,1.27 -2.1756,1.27 -0.9337,0 -1.748,-0.5119 -2.1773,-1.2705 -0.5238,0.7673 -1.4061,1.2705 -2.406,1.2705 -1.5572,0 -2.8293,-1.2203 -2.9124,-2.7567 l -0.0043,-0.16 v -6.25 c 0,-4.14213 3.3579,-7.5 7.5,-7.5 z m 0,1.66667 c -3.1545,0 -5.7242,2.50398 -5.8299,5.63273 l -0.0034,0.2006 -6e-4,6.2051 0.0025,0.1149 c 0.0356,0.6593 0.5835,1.18 1.2481,1.18 0.3765,0 0.7221,-0.1661 0.9558,-0.446 l 0.0737,-0.0975 c 0.6958,-1.0192 2.2192,-0.9552 2.8271,0.1188 0.1478,0.2612 0.4221,0.4247 0.7267,0.4247 0.3043,0 0.5778,-0.163 0.7239,-0.4222 0.5838,-1.0348 2.0176,-1.1347 2.7458,-0.2319 l 0.0808,0.1087 c 0.2329,0.3399 0.6142,0.5454 1.0328,0.5454 0.6498,0 1.1837,-0.4957 1.2443,-1.1296 l 0.0057,-0.1204 v -6.25 c 0,-3.22165 -2.6116,-5.83333 -5.8333,-5.83333 z m 0,6.66663 c 0.9205,0 1.6667,0.9328 1.6667,2.0834 0,1.1506 -0.7462,2.0833 -1.6667,2.0833 -0.9205,0 -1.6667,-0.9327 -1.6667,-2.0833 0,-1.1506 0.7462,-2.0834 1.6667,-2.0834 z m -2.0833,-3.3333 c 0.6903,0 1.25,0.5596 1.25,1.25 0,0.6903 -0.5597,1.25 -1.25,1.25 -0.6904,0 -1.25,-0.5597 -1.25,-1.25 0,-0.6904 0.5596,-1.25 1.25,-1.25 z m 4.1666,0 c 0.6904,0 1.25,0.5596 1.25,1.25 0,0.6903 -0.5596,1.25 -1.25,1.25 -0.6903,0 -1.25,-0.5597 -1.25,-1.25 0,-0.6904 0.5597,-1.25 1.25,-1.25 z"
     fill="#ebe0ff"
     id="path3"
     clip-path="url(#clipPath1)" />
  <path
     d="m 69.66668,3 c 0.4602,0 0.8333,0.3731 0.8333,0.83333 V 17.1667 c 0,0.4602 -0.3731,0.8333 -0.8333,0.8333 h -13.3334 c -0.4602,0 -0.8333,-0.3731 -0.8333,-0.8333 V 3.83333 C 55.49998,3.3731 55.87308,3 56.33328,3 Z m -7.5,1.66667 h -5 V 16.3333 h 5 V 13 h 1.6666 v 3.3333 h 5 V 4.66667 h -5 V 8 h -1.6666 z M 65.49998,8 l 2.5,2.5 -2.5,2.5 v -1.6667 h -5 V 13 l -2.5,-2.5 2.5,-2.5 v 1.6667 h 5 z"
     fill="#887c9d"
     id="path5"
     clip-path="url(#clipPath4)" />
  <defs
     id="defs8">
    <clipPath
       clipPathUnits="userSpaceOnUse"
       id="clipPath1">
      <g
         id="g2">
        <path
           d="M 0,1 C 0,0.44772 0.44771,0 1,0 H 41.99998 V 21 H 1 C 0.44771,21 0,20.5523 0,20 Z"
           fill="#ffffff"
           id="path1" />
      </g>
    </clipPath>
    <clipPath
       clipPathUnits="userSpaceOnUse"
       id="clipPath4">
      <g
         id="g7">
        <path
           d="m 41.99998,0 h 41 c 0.5523,0 1,0.44772 1,1 v 19 c 0,0.5523 -0.4477,1 -1,1 h -41 z"
           fill="#ffffff"
           id="path7" />
      </g>
    </clipPath>
  </defs>
</svg>
