<?xml version="1.0" encoding="UTF-8" standalone="no"?>
<svg
   width="84.000031"
   height="21"
   viewBox="0 0 84.000031 21"
   fill="none"
   version="1.1"
   id="svg8"
   sodipodi:docname="ghost_split_on.svg"
   inkscape:version="1.3 (0e150ed, 2023-07-21)"
   xmlns:inkscape="http://www.inkscape.org/namespaces/inkscape"
   xmlns:sodipodi="http://sodipodi.sourceforge.net/DTD/sodipodi-0.dtd"
   xmlns="http://www.w3.org/2000/svg"
   xmlns:svg="http://www.w3.org/2000/svg">
  <sodipodi:namedview
     id="namedview8"
     pagecolor="#ffffff"
     bordercolor="#999999"
     borderopacity="1"
     inkscape:showpageshadow="2"
     inkscape:pageopacity="0"
     inkscape:pagecheckerboard="0"
     inkscape:deskcolor="#d1d1d1"
     inkscape:zoom="5.4703646"
     inkscape:cx="32.447563"
     inkscape:cy="28.425893"
     inkscape:window-width="1920"
     inkscape:window-height="1043"
     inkscape:window-x="1920"
     inkscape:window-y="0"
     inkscape:window-maximized="1"
     inkscape:current-layer="svg8" />
  <path
     id="path13"
     style="stroke:none;fill:#8d19d7"
     d="M 1 0 C 0.4477211 0 0 0.4477211 0 1 L 0 20 C 0 20.552298 0.4477211 21 1 21 L 42 21 L 83 21 C 83.552299 21 84 20.552299 84 20 L 84 1 C 84 0.44772055 83.552299 0 83 0 L 42 0 L 1 0 z M 1 1 L 41 1 L 41 20 L 1 20 L 1 1 z " />
  <path
     d="m 21.00003,2.1665 c 4.1421,0 7.5,3.35787 7.5,7.5 v 6.25 c 0,1.6108 -1.3059,2.9167 -2.9167,2.9167 -0.9999,0 -1.8822,-0.5032 -2.4077,-1.27 -0.4276,0.7581 -1.2419,1.27 -2.1756,1.27 -0.9338,0 -1.748,-0.5119 -2.1773,-1.2705 -0.5238,0.7673 -1.4062,1.2705 -2.4061,1.2705 -1.5571,0 -2.8292,-1.2203 -2.9123,-2.7567 l -0.0043,-0.16 v -6.25 c 0,-4.14213 3.3578,-7.5 7.5,-7.5 z m 0,1.66667 c -3.1546,0 -5.7243,2.50398 -5.83,5.63273 l -0.0034,0.2006 -6e-4,6.2051 0.0025,0.1149 c 0.0357,0.6593 0.5836,1.18 1.2481,1.18 0.3765,0 0.7221,-0.1661 0.9559,-0.446 l 0.0737,-0.0975 c 0.6957,-1.0192 2.2192,-0.9552 2.827,0.1188 0.1479,0.2612 0.4222,0.4247 0.7268,0.4247 0.3042,0 0.5777,-0.163 0.7239,-0.4222 0.5837,-1.0348 2.0176,-1.1347 2.7457,-0.2319 l 0.0809,0.1087 c 0.2329,0.3399 0.6141,0.5454 1.0328,0.5454 0.6498,0 1.1837,-0.4957 1.2443,-1.1296 l 0.0057,-0.1204 v -6.25 c 0,-3.22165 -2.6117,-5.83333 -5.8333,-5.83333 z m 0,6.66663 c 0.9205,0 1.6666,0.9328 1.6666,2.0834 0,1.1506 -0.7461,2.0833 -1.6666,2.0833 -0.9205,0 -1.6667,-0.9327 -1.6667,-2.0833 0,-1.1506 0.7462,-2.0834 1.6667,-2.0834 z m -2.0834,-3.3333 c 0.6904,0 1.25,0.5596 1.25,1.25 0,0.6903 -0.5596,1.25 -1.25,1.25 -0.6903,0 -1.25,-0.5597 -1.25,-1.25 0,-0.6904 0.5597,-1.25 1.25,-1.25 z m 4.1667,0 c 0.6903,0 1.25,0.5596 1.25,1.25 0,0.6903 -0.5597,1.25 -1.25,1.25 -0.6903,0 -1.25,-0.5597 -1.25,-1.25 0,-0.6904 0.5597,-1.25 1.25,-1.25 z"
     fill="#887c9d"
     id="path2"
     clip-path="url(#clipPath12)" />
  <path
     d="m 69.66663,3 c 0.4603,0 0.8334,0.3731 0.8334,0.83333 V 17.1667 c 0,0.4602 -0.3731,0.8333 -0.8334,0.8333 h -13.3333 c -0.4602,0 -0.8333,-0.3731 -0.8333,-0.8333 V 3.83333 C 55.50003,3.3731 55.87313,3 56.33333,3 Z m -7.5,1.66667 h -5 V 16.3333 h 5 V 13 h 1.6667 v 3.3333 h 5 V 4.66667 h -5 V 8 h -1.6667 z M 65.50003,8 l 2.5,2.5 -2.5,2.5 v -1.6667 h -5 V 13 l -2.5,-2.5 2.5,-2.5 v 1.6667 h 5 z"
     fill="#ebe0ff"
     id="path5"
     clip-path="url(#clipPath14)" />
  <path
     d="m 45.9512,2 h 41 c 1.1045,0 2,0.89543 2,2 h -2 -41 z m 43,21 c 0,1.1046 -0.8955,2 -2,2 h -41 v -2 h 41 z m -43,1 V 3 Z m 41,-22 c 1.1045,0 2,0.89543 2,2 v 19 c 0,1.1046 -0.8955,2 -2,2 V 23 4 Z"
     fill="#8d19d7"
     mask="url(#path-5-inside-1_2009_223)"
     id="path6"
     transform="translate(-3.95117,-3)" />
  <defs
     id="defs8">
    <clipPath
       clipPathUnits="userSpaceOnUse"
       id="clipPath12">
      <g
         id="g13">
        <path
           d="M 0,1 C 0,0.44772 0.44772,0 1,0 H 42.00003 V 21 H 1 C 0.44772,21 0,20.5523 0,20 Z"
           fill="#ffffff"
           id="path12" />
      </g>
    </clipPath>
    <mask
       id="path-5-inside-1_2009_223"
       fill="#ffffff">
      <path
         d="m 45.9512,3 h 41 c 0.5523,0 1,0.44772 1,1 v 19 c 0,0.5523 -0.4477,1 -1,1 h -41 z"
         id="path3" />
    </mask>
    <clipPath
       clipPathUnits="userSpaceOnUse"
       id="clipPath14">
      <g
         id="g15">
        <path
           d="m 42.00003,0 h 41 c 0.5523,0 1,0.44772 1,1 v 19 c 0,0.5523 -0.4477,1 -1,1 h -41 z"
           fill="#ffffff"
           id="path14" />
      </g>
    </clipPath>
  </defs>
</svg>
